<svg version="1.0" xmlns="http://www.w3.org/2000/svg" width="300" height="300" viewBox="0 0 300.000000 300.000000" preserveAspectRatio="xMidYMid " class="svg" style="width: 32px; height: 32px;">
<g transform="translate(0.000000,300.000000) scale(0.100000,-0.100000)" fill="#060606" stroke="none">

<path class="node" id="node2" d="M1430 2334 c-36 -19 -101 -54 -145 -77 -277 -144 -703 -386 -763
-435 -24 -19 -55 -53 -70 -75 l-27 -41 0 -465 0 -466 23 -45 c32 -61 58 -87
117 -118 l50 -27 880 0 880 0 47 24 c54 28 86 59 120 116 l23 40 3 447 c2 301
-1 461 -8 488 -18 69 -80 126 -215 200 -33 18 -161 90 -285 160 -124 70 -250
141 -280 157 -30 17 -104 58 -163 92 -60 33 -112 61 -115 61 -4 0 -36 -16 -72
-36z m274 -263 c105 -59 218 -123 251 -141 147 -80 383 -215 413 -237 29 -22
32 -29 32 -76 l0 -52 -98 -47 c-53 -26 -181 -88 -284 -137 l-187 -90 -42 14
c-23 9 -47 19 -53 24 -21 17 -194 71 -227 71 -48 0 -121 -22 -214 -63 -44 -19
-91 -38 -105 -42 -24 -5 -114 36 -537 247 l-63 31 0 49 c0 44 3 50 39 75 21
16 52 35 67 45 16 9 76 44 134 78 58 34 139 80 180 102 41 22 128 69 192 104
163 89 290 154 301 154 5 0 96 -49 201 -109z m-920 -794 c101 -50 175 -92 170
-97 -5 -5 -76 -43 -159 -85 -82 -42 -158 -83 -169 -91 -11 -8 -24 -14 -28 -14
-5 0 -8 86 -8 191 0 105 3 189 8 187 4 -1 87 -43 186 -91z m1616 -92 c0 -96
-2 -175 -5 -175 -15 0 -345 172 -345 179 0 6 26 22 58 36 31 14 107 50 167 80
61 30 113 54 118 55 4 0 7 -79 7 -175z m-838 19 c159 -61 783 -365 816 -397
10 -10 9 -17 -2 -32 -14 -20 -34 -20 -863 -23 -853 -2 -911 0 -900 32 2 6 30
26 63 45 91 51 580 295 664 331 41 17 89 38 105 45 39 19 65 19 117 -1z"></path>
</g>
<g transform="translate(0.000000,300.000000) scale(0.100000,-0.100000)" fill="#A4A4A4" stroke="none">


<path class="node" id="node5" d="M1406 2135 c-48 -25 -140 -74 -204 -109 -64 -35 -151 -82 -192 -104
-41 -22 -122 -68 -180 -102 -58 -34 -118 -69 -134 -78 -15 -10 -46 -29 -67
-45 -36 -25 -39 -31 -39 -75 l0 -49 63 -31 c423 -211 513 -252 537 -247 14 4
61 23 105 42 93 41 166 63 214 63 33 0 206 -54 227 -71 6 -5 30 -15 53 -24
l42 -14 187 90 c103 49 231 111 284 137 l98 47 0 52 c0 47 -3 54 -32 76 -30
22 -266 157 -413 237 -33 18 -146 82 -251 141 -105 60 -196 109 -201 109 -5 0
-48 -20 -97 -45z"></path>
<path class="node" id="node6" d="M590 1181 c0 -105 3 -191 8 -191 4 0 17 6 28 14 11 8 87 49 169 91
83 42 154 80 159 85 6 6 -240 137 -356 188 -5 2 -8 -82 -8 -187z"></path>
<path class="node" id="node7" d="M2275 1305 c-60 -30 -136 -66 -167 -80 -32 -14 -58 -30 -58 -36 0 -7
330 -179 345 -179 3 0 5 79 5 175 0 96 -3 175 -7 175 -5 -1 -57 -25 -118 -55z"></path>
<path class="node" id="node8" d="M1445 1205 c-16 -7 -64 -28 -105 -45 -84 -36 -573 -280 -664 -331
-33 -19 -61 -39 -63 -45 -11 -32 47 -34 900 -32 829 3 849 3 863 23 11 15 12
22 2 32 -19 18 -523 271 -658 330 -209 91 -220 94 -275 68z"></path>
</g>
</svg>